<svg xmlns="http://www.w3.org/2000/svg" xmlns:xlink="http://www.w3.org/1999/xlink" width="500" zoomAndPan="magnify" viewBox="0 0 375 374.999991" height="500" preserveAspectRatio="xMidYMid meet" version="1.0"><defs><g/><clipPath id="9dd91a6838"><rect x="0" width="264" y="0" height="204"/></clipPath><clipPath id="a7f2d45406"><path d="M 0.160156 37 L 76 37 L 76 160 L 0.160156 160 Z M 0.160156 37 " clip-rule="nonzero"/></clipPath><clipPath id="d196c27c8a"><rect x="0" width="78" y="0" height="216"/></clipPath><clipPath id="e948615bc1"><rect x="0" width="66" y="0" height="77"/></clipPath></defs><g transform="matrix(1, 0, 0, 1, 100, 84)"><g clip-path="url(#9dd91a6838)"><g fill="#ffc191" fill-opacity="1"><g transform="translate(0.716885, 119.70048)"><g><path d="M 21.9375 -62.953125 C 19.476562 -62.953125 17.234375 -63.566406 15.203125 -64.796875 C 13.171875 -66.035156 11.539062 -67.6875 10.3125 -69.75 C 9.082031 -71.820312 8.46875 -74.085938 8.46875 -76.546875 C 8.46875 -79.085938 9.082031 -81.367188 10.3125 -83.390625 C 11.539062 -85.421875 13.171875 -87.050781 15.203125 -88.28125 C 17.234375 -89.519531 19.476562 -90.140625 21.9375 -90.140625 C 24.476562 -90.140625 26.757812 -89.519531 28.78125 -88.28125 C 30.8125 -87.050781 32.441406 -85.421875 33.671875 -83.390625 C 34.910156 -81.367188 35.53125 -79.085938 35.53125 -76.546875 C 35.53125 -74.085938 34.910156 -71.820312 33.671875 -69.75 C 32.441406 -67.6875 30.8125 -66.035156 28.78125 -64.796875 C 26.757812 -63.566406 24.476562 -62.953125 21.9375 -62.953125 Z M 5.84375 -7.390625 C 4.726562 -14.703125 4.226562 -22.070312 4.34375 -29.5 C 4.46875 -36.9375 5.007812 -45.144531 5.96875 -54.125 L 24.4375 -54.125 C 23.5625 -44.988281 23.5625 -36.625 24.4375 -29.03125 C 25.3125 -21.4375 26.820312 -14.222656 28.96875 -7.390625 Z M 5.84375 -7.390625 "/></g></g></g><g fill="#ffc191" fill-opacity="1"><g transform="translate(30.879618, 119.70048)"><g><path d="M 21.9375 -62.953125 C 19.476562 -62.953125 17.234375 -63.566406 15.203125 -64.796875 C 13.171875 -66.035156 11.539062 -67.6875 10.3125 -69.75 C 9.082031 -71.820312 8.46875 -74.085938 8.46875 -76.546875 C 8.46875 -79.085938 9.082031 -81.367188 10.3125 -83.390625 C 11.539062 -85.421875 13.171875 -87.050781 15.203125 -88.28125 C 17.234375 -89.519531 19.476562 -90.140625 21.9375 -90.140625 C 24.476562 -90.140625 26.757812 -89.519531 28.78125 -88.28125 C 30.8125 -87.050781 32.441406 -85.421875 33.671875 -83.390625 C 34.910156 -81.367188 35.53125 -79.085938 35.53125 -76.546875 C 35.53125 -74.085938 34.910156 -71.820312 33.671875 -69.75 C 32.441406 -67.6875 30.8125 -66.035156 28.78125 -64.796875 C 26.757812 -63.566406 24.476562 -62.953125 21.9375 -62.953125 Z M 5.84375 -7.390625 C 4.726562 -14.703125 4.226562 -22.070312 4.34375 -29.5 C 4.46875 -36.9375 5.007812 -45.144531 5.96875 -54.125 L 24.4375 -54.125 C 23.5625 -44.988281 23.5625 -36.625 24.4375 -29.03125 C 25.3125 -21.4375 26.820312 -14.222656 28.96875 -7.390625 Z M 5.84375 -7.390625 "/></g></g></g><g fill="#ffc191" fill-opacity="1"><g transform="translate(61.042351, 119.70048)"><g><path d="M -1.078125 -55.921875 C 1.941406 -56.796875 5.640625 -57.332031 10.015625 -57.53125 C 14.390625 -57.726562 19.019531 -57.53125 23.90625 -56.9375 C 28.789062 -56.34375 33.519531 -55.347656 38.09375 -53.953125 C 42.664062 -52.554688 46.738281 -50.785156 50.3125 -48.640625 C 53.894531 -46.492188 56.519531 -43.910156 58.1875 -40.890625 C 57.070312 -36.128906 53.769531 -31.0625 48.28125 -25.6875 C 42.800781 -20.320312 35.925781 -15.054688 27.65625 -9.890625 C 29.96875 -8.066406 32.234375 -6.519531 34.453125 -5.25 C 36.679688 -3.976562 39.144531 -2.921875 41.84375 -2.078125 C 44.550781 -1.242188 47.753906 -0.507812 51.453125 0.125 C 55.148438 0.757812 59.617188 1.394531 64.859375 2.03125 L 64.859375 32.4375 C 59.054688 31.71875 53.113281 30.203125 47.03125 27.890625 C 40.957031 25.585938 35.117188 22.804688 29.515625 19.546875 C 23.910156 16.296875 18.878906 12.78125 14.421875 9 C 9.972656 5.226562 6.359375 1.492188 3.578125 -2.203125 C 0.796875 -5.898438 -0.753906 -9.300781 -1.078125 -12.40625 C 6.867188 -17.25 13.625 -21.617188 19.1875 -25.515625 C 24.757812 -29.410156 28.539062 -32.472656 30.53125 -34.703125 C 26.875 -36.523438 22.835938 -37.253906 18.421875 -36.890625 C 14.003906 -36.535156 9.132812 -35.804688 3.8125 -34.703125 Z M -1.078125 -55.921875 "/></g></g></g><g fill="#ffc191" fill-opacity="1"><g transform="translate(119.937166, 119.70048)"><g><path d="M 40.296875 -72.96875 C 46.972656 -72.96875 52.414062 -71.832031 56.625 -69.5625 C 60.84375 -67.300781 63.960938 -64.300781 65.984375 -60.5625 C 68.015625 -56.832031 69.03125 -52.660156 69.03125 -48.046875 C 69.03125 -42.804688 67.796875 -38.414062 65.328125 -34.875 C 62.867188 -31.332031 59.515625 -28.507812 55.265625 -26.40625 C 51.015625 -24.300781 46.207031 -22.769531 40.84375 -21.8125 C 35.476562 -20.863281 29.929688 -20.390625 24.203125 -20.390625 C 20.460938 -20.390625 16.644531 -20.546875 12.75 -20.859375 C 8.863281 -21.179688 5.007812 -21.617188 1.1875 -22.171875 L 1.1875 -42.5625 C 2.300781 -42.25 3.394531 -41.953125 4.46875 -41.671875 C 5.539062 -41.390625 6.675781 -41.128906 7.875 -40.890625 C 8.269531 -47.097656 9.914062 -52.601562 12.8125 -57.40625 C 15.71875 -62.21875 19.535156 -66.015625 24.265625 -68.796875 C 28.992188 -71.578125 34.335938 -72.96875 40.296875 -72.96875 Z M 31.953125 -37.5625 C 35.128906 -37.5625 38.03125 -37.878906 40.65625 -38.515625 C 43.28125 -39.148438 45.40625 -40.203125 47.03125 -41.671875 C 48.664062 -43.140625 49.484375 -45.109375 49.484375 -47.578125 C 49.484375 -50.035156 48.445312 -52.039062 46.375 -53.59375 C 44.3125 -55.144531 41.929688 -55.921875 39.234375 -55.921875 C 36.523438 -55.921875 34.15625 -55.101562 32.125 -53.46875 C 30.101562 -51.84375 28.554688 -49.796875 27.484375 -47.328125 C 26.410156 -44.867188 25.875 -42.367188 25.875 -39.828125 C 25.875 -39.503906 25.875 -39.179688 25.875 -38.859375 C 25.875 -38.546875 25.914062 -38.191406 26 -37.796875 C 27.03125 -37.710938 28.039062 -37.648438 29.03125 -37.609375 C 30.03125 -37.578125 31.003906 -37.5625 31.953125 -37.5625 Z M 28.609375 -17.765625 C 31.554688 -13.472656 35.234375 -9.9375 39.640625 -7.15625 C 44.054688 -4.375 48.769531 -2.664062 53.78125 -2.03125 L 53.78125 21.21875 C 46.382812 20.425781 39.601562 18.140625 33.4375 14.359375 C 27.28125 10.585938 22.09375 5.820312 17.875 0.0625 C 13.664062 -5.695312 10.648438 -11.957031 8.828125 -18.71875 C 12.003906 -18.320312 14.644531 -18.023438 16.75 -17.828125 C 18.851562 -17.628906 20.820312 -17.53125 22.65625 -17.53125 C 23.601562 -17.53125 24.570312 -17.546875 25.5625 -17.578125 C 26.5625 -17.617188 27.578125 -17.679688 28.609375 -17.765625 Z M 28.609375 -17.765625 "/></g></g></g><g fill="#ffc191" fill-opacity="1"><g transform="translate(191.469329, 119.70048)"><g><path d="M 50.203125 -55.4375 C 55.523438 -55.4375 59.71875 -53.707031 62.78125 -50.25 C 65.84375 -46.800781 67.804688 -42.191406 68.671875 -36.421875 C 69.546875 -30.660156 69.3125 -24.28125 67.96875 -17.28125 L 45.1875 -17.28125 C 46.0625 -20.78125 46.535156 -23.921875 46.609375 -26.703125 C 46.691406 -29.484375 46.253906 -31.6875 45.296875 -33.3125 C 44.347656 -34.945312 42.679688 -35.765625 40.296875 -35.765625 C 36.960938 -35.765625 34.039062 -34.550781 31.53125 -32.125 C 29.03125 -29.707031 27.101562 -26.550781 25.75 -22.65625 C 24.40625 -18.757812 23.847656 -14.625 24.078125 -10.25 C 24.878906 -6.28125 25.953125 -2.1875 27.296875 2.03125 L 9.65625 2.03125 C 6 -8.78125 3.65625 -19.113281 2.625 -28.96875 C 1.59375 -38.832031 1.988281 -48.253906 3.8125 -57.234375 L 26.953125 -57.234375 C 25.910156 -54.523438 25.050781 -51.679688 24.375 -48.703125 C 23.707031 -45.722656 23.175781 -42.644531 22.78125 -39.46875 C 25.320312 -44.15625 28.816406 -48.046875 33.265625 -51.140625 C 37.710938 -54.242188 43.359375 -55.675781 50.203125 -55.4375 Z M 50.203125 -55.4375 "/></g></g></g></g></g><g transform="matrix(1, 0, 0, 1, 26, 74)"><g clip-path="url(#d196c27c8a)"><g clip-path="url(#a7f2d45406)"><g fill="#ffc191" fill-opacity="1"><g transform="translate(12.130514, 126.73914)"><g><path d="M -10.9375 -5.90625 L 11.1875 -5.90625 C 11.019531 -4.738281 10.875 -3.609375 10.75 -2.515625 C 10.625 -1.421875 10.5625 -0.332031 10.5625 0.75 C 10.5625 5.695312 11.566406 9.113281 13.578125 11 C 15.597656 12.894531 17.78125 13.84375 20.125 13.84375 C 22.300781 13.84375 24.25 13.085938 25.96875 11.578125 C 27.6875 10.066406 28.546875 7.128906 28.546875 2.765625 C 28.546875 0.078125 28.164062 -2.539062 27.40625 -5.09375 C 26.65625 -7.65625 25.421875 -10.695312 23.703125 -14.21875 C 21.984375 -17.738281 19.578125 -22.222656 16.484375 -27.671875 C 14.210938 -31.691406 12.175781 -35.796875 10.375 -39.984375 C 8.570312 -44.179688 7.125 -48.1875 6.03125 -52 C 4.945312 -55.820312 4.40625 -59.078125 4.40625 -61.765625 C 4.40625 -68.046875 5.828125 -73.238281 8.671875 -77.34375 C 11.523438 -81.457031 15.195312 -84.519531 19.6875 -86.53125 C 24.175781 -88.550781 28.804688 -89.5625 33.578125 -89.5625 C 39.285156 -89.5625 44.421875 -88.300781 48.984375 -85.78125 C 53.554688 -83.269531 57.160156 -79.5625 59.796875 -74.65625 C 62.441406 -69.75 63.765625 -63.6875 63.765625 -56.46875 C 63.765625 -54.625 63.640625 -52.695312 63.390625 -50.6875 L 41.25 -50.8125 C 41.757812 -53.582031 42.015625 -56.015625 42.015625 -58.109375 C 42.015625 -62.046875 41.320312 -64.894531 39.9375 -66.65625 C 38.550781 -68.425781 36.894531 -69.3125 34.96875 -69.3125 C 33.375 -69.3125 31.71875 -68.597656 30 -67.171875 C 28.28125 -65.742188 27.421875 -63.0625 27.421875 -59.125 C 27.421875 -56.519531 27.921875 -53.351562 28.921875 -49.625 C 29.929688 -45.894531 31.65625 -41.847656 34.09375 -37.484375 C 38.78125 -29.097656 42.53125 -21.550781 45.34375 -14.84375 C 48.15625 -8.132812 49.5625 -1.800781 49.5625 4.15625 C 49.5625 10.351562 48.070312 15.632812 45.09375 20 C 42.113281 24.363281 38.316406 27.65625 33.703125 29.875 C 29.097656 32.09375 24.320312 33.203125 19.375 33.203125 C 14.34375 33.203125 9.476562 31.984375 4.78125 29.546875 C 0.0820312 27.117188 -3.773438 23.472656 -6.796875 18.609375 C -9.816406 13.753906 -11.328125 7.632812 -11.328125 0.25 C -11.328125 -1.757812 -11.195312 -3.8125 -10.9375 -5.90625 Z M -10.9375 -5.90625 "/></g></g></g></g></g></g><g transform="matrix(1, 0, 0, 1, 274, 203)"><g clip-path="url(#e948615bc1)"><g fill="#ffc191" fill-opacity="1"><g transform="translate(2.409035, 42.612225)"><g><path d="M 6.046875 0.78125 C 5.109375 0.78125 4.253906 0.539062 3.484375 0.0625 C 2.710938 -0.40625 2.085938 -1.03125 1.609375 -1.8125 C 1.140625 -2.601562 0.90625 -3.46875 0.90625 -4.40625 C 0.90625 -5.382812 1.140625 -6.257812 1.609375 -7.03125 C 2.085938 -7.800781 2.710938 -8.421875 3.484375 -8.890625 C 4.253906 -9.359375 5.109375 -9.59375 6.046875 -9.59375 C 7.015625 -9.59375 7.882812 -9.359375 8.65625 -8.890625 C 9.4375 -8.421875 10.0625 -7.800781 10.53125 -7.03125 C 11 -6.257812 11.234375 -5.382812 11.234375 -4.40625 C 11.234375 -3.46875 11 -2.601562 10.53125 -1.8125 C 10.0625 -1.03125 9.4375 -0.40625 8.65625 0.0625 C 7.882812 0.539062 7.015625 0.78125 6.046875 0.78125 Z M 6.046875 0.78125 "/></g></g></g><g fill="#ffc191" fill-opacity="1"><g transform="translate(11.646981, 42.612225)"><g><path d="M 17.515625 -13.875 C 17.609375 -14.394531 17.65625 -14.878906 17.65625 -15.328125 C 17.65625 -16.210938 17.375 -16.941406 16.8125 -17.515625 C 16.25 -18.085938 15.378906 -18.375 14.203125 -18.375 C 12.890625 -18.375 11.789062 -18.023438 10.90625 -17.328125 C 10.03125 -16.628906 9.375 -15.710938 8.9375 -14.578125 C 8.5 -13.441406 8.28125 -12.191406 8.28125 -10.828125 C 8.28125 -8.609375 8.769531 -6.816406 9.75 -5.453125 C 10.738281 -4.085938 12.03125 -3.085938 13.625 -2.453125 C 15.21875 -1.816406 16.910156 -1.5 18.703125 -1.5 C 19.640625 -1.5 20.597656 -1.550781 21.578125 -1.65625 C 22.566406 -1.757812 23.550781 -1.953125 24.53125 -2.234375 L 24.53125 5.59375 C 23.46875 5.78125 22.425781 5.929688 21.40625 6.046875 C 20.394531 6.171875 19.398438 6.234375 18.421875 6.234375 C 15.816406 6.234375 13.4375 5.800781 11.28125 4.9375 C 9.125 4.070312 7.269531 2.863281 5.71875 1.3125 C 4.175781 -0.226562 2.988281 -2.03125 2.15625 -4.09375 C 1.320312 -6.15625 0.90625 -8.398438 0.90625 -10.828125 C 0.90625 -13.523438 1.453125 -15.976562 2.546875 -18.1875 C 3.640625 -20.40625 5.171875 -22.175781 7.140625 -23.5 C 9.109375 -24.820312 11.429688 -25.484375 14.109375 -25.484375 C 16.535156 -25.484375 18.625 -25.007812 20.375 -24.0625 C 22.132812 -23.125 23.429688 -21.789062 24.265625 -20.0625 C 25.109375 -18.332031 25.332031 -16.269531 24.9375 -13.875 Z M 17.515625 -13.875 "/></g></g></g><g fill="#ffc191" fill-opacity="1"><g transform="translate(33.490377, 42.612225)"><g><path d="M 24.03125 -10.1875 C 24.03125 -8.425781 23.535156 -6.765625 22.546875 -5.203125 C 21.554688 -3.640625 20.203125 -2.375 18.484375 -1.40625 C 16.773438 -0.4375 14.816406 0.0625 12.609375 0.09375 C 12.578125 0.09375 12.550781 0.078125 12.53125 0.046875 C 12.519531 0.015625 12.515625 0 12.515625 0 C 12.484375 0 12.46875 0.015625 12.46875 0.046875 C 12.46875 0.078125 12.46875 0.09375 12.46875 0.09375 C 11.007812 0.09375 9.585938 -0.15625 8.203125 -0.65625 C 6.828125 -1.15625 5.59375 -1.859375 4.5 -2.765625 C 3.40625 -3.679688 2.53125 -4.769531 1.875 -6.03125 C 1.226562 -7.289062 0.90625 -8.675781 0.90625 -10.1875 C 0.90625 -12.007812 1.40625 -13.6875 2.40625 -15.21875 C 3.40625 -16.75 4.773438 -17.976562 6.515625 -18.90625 C 8.265625 -19.832031 10.25 -20.296875 12.46875 -20.296875 L 12.515625 -20.296875 C 12.515625 -20.296875 12.53125 -20.296875 12.5625 -20.296875 C 12.59375 -20.296875 12.609375 -20.296875 12.609375 -20.296875 C 14.703125 -20.296875 16.613281 -19.851562 18.34375 -18.96875 C 20.070312 -18.09375 21.453125 -16.894531 22.484375 -15.375 C 23.515625 -13.863281 24.03125 -12.132812 24.03125 -10.1875 Z M 12.515625 -6.46875 C 13.847656 -6.46875 14.894531 -6.804688 15.65625 -7.484375 C 16.414062 -8.171875 16.804688 -9.070312 16.828125 -10.1875 C 16.828125 -11.25 16.441406 -12.113281 15.671875 -12.78125 C 14.898438 -13.445312 13.847656 -13.78125 12.515625 -13.78125 C 11.179688 -13.78125 10.117188 -13.445312 9.328125 -12.78125 C 8.535156 -12.113281 8.140625 -11.25 8.140625 -10.1875 C 8.140625 -9.09375 8.535156 -8.195312 9.328125 -7.5 C 10.117188 -6.8125 11.179688 -6.46875 12.515625 -6.46875 Z M 12.515625 -6.46875 "/></g></g></g></g></g></svg>